# xmcd
#
# Track frame offsets:
# 150
# 17571
# 34790
# 51877
# 69733
# 86846
# 104059
# 121496
# 139045
# 156526
# 174132
# 191757
# 209205
# 226798
#
# Disc length: 3256 seconds
#
#
# Revision: 0
# Processed by: cddbd v1.5.1PL0 Copyright (c) Steve Scherf et al.
# Submitted via: FreeRIP 2.931 
#
DISCID=cc0cb60e
DTITLE=Bengt "Bula" Ericsson and Bengt "Rojne" Eriksson - Too Old To Grow Up Now
DYEAR=1900
DGENRE=Square Dance
TTITLE0=Too Old To Grown Up Now
TTITLE1=Shoulda' Been A Cowboy
TTITLE2=Callin' Baton Rouge
TTITLE3=I Think About It All The Time
TTITLE4=Moonlight Shadow
TTITLE5=Me And Bobby McGee
TTITLE6=Honky Tonk Blues
TTITLE7=You're Talking To The Wrong Man
TTITLE8=Good Luck Charm
TTITLE9=(Ghost) Riders In The Sky
TTITLE10=Sea Of Heartbreak
TTITLE11=Show Me The Way To Amarillo
TTITLE12=Let Me Be There
TTITLE13=Di I Tell You
EXTD=1-7 Basic\n8-14 Mainstream
EXTT0=
EXTT1=
EXTT2=
EXTT3=
EXTT4=
EXTT5=
EXTT6=
EXTT7=
EXTT8=
EXTT9=
EXTT10=
EXTT11=
EXTT12=
EXTT13=
PLAYORDER=
